<svg width="239" height="18" viewBox="0 0 239 18" fill="none" xmlns="http://www.w3.org/2000/svg">
<path d="M2.94629 14H0.30957V1.20312H2.94629V14ZM8.64934 4.49023L8.72844 5.58887C9.40812 4.73926 10.3193 4.31445 11.4618 4.31445C12.4696 4.31445 13.2196 4.61035 13.7118 5.20215C14.204 5.79395 14.456 6.67871 14.4677 7.85645V14H11.9277V7.91797C11.9277 7.37891 11.8105 6.98926 11.5761 6.74902C11.3417 6.50293 10.9521 6.37988 10.4071 6.37988C9.6923 6.37988 9.15617 6.68457 8.79875 7.29395V14H6.25871V4.49023H8.64934ZM22.6317 11.3721C22.6317 11.0615 22.4764 10.8184 22.1659 10.6426C21.8612 10.4609 21.369 10.2998 20.6893 10.1592C18.4276 9.68457 17.2967 8.72363 17.2967 7.27637C17.2967 6.43262 17.6454 5.72949 18.3426 5.16699C19.0457 4.59863 19.9627 4.31445 21.0936 4.31445C22.3006 4.31445 23.2645 4.59863 23.9852 5.16699C24.7118 5.73535 25.075 6.47363 25.075 7.38184H22.535C22.535 7.01855 22.4178 6.71973 22.1834 6.48535C21.9491 6.24512 21.5829 6.125 21.0848 6.125C20.6571 6.125 20.326 6.22168 20.0916 6.41504C19.8573 6.6084 19.7401 6.85449 19.7401 7.15332C19.7401 7.43457 19.8719 7.66309 20.1356 7.83887C20.4051 8.00879 20.8563 8.1582 21.4891 8.28711C22.1219 8.41016 22.6551 8.55078 23.0887 8.70898C24.4305 9.20117 25.1014 10.0537 25.1014 11.2666C25.1014 12.1338 24.7293 12.8369 23.9852 13.376C23.2411 13.9092 22.2801 14.1758 21.1024 14.1758C20.3055 14.1758 19.5965 14.0352 18.9754 13.7539C18.3602 13.4668 17.8768 13.0771 17.5252 12.585C17.1737 12.0869 16.9979 11.5508 16.9979 10.9766H19.4061C19.4295 11.4277 19.5965 11.7734 19.9071 12.0137C20.2176 12.2539 20.6336 12.374 21.1551 12.374C21.6414 12.374 22.0077 12.2832 22.2537 12.1016C22.5057 11.9141 22.6317 11.6709 22.6317 11.3721ZM36.3855 9.33301C36.3855 10.7979 36.0515 11.9727 35.3836 12.8574C34.7214 13.7363 33.825 14.1758 32.6941 14.1758C31.7332 14.1758 30.9568 13.8418 30.365 13.1738V17.6562H27.825V4.49023H30.1804L30.2683 5.42188C30.8836 4.68359 31.6863 4.31445 32.6765 4.31445C33.8484 4.31445 34.7595 4.74805 35.4099 5.61523C36.0603 6.48242 36.3855 7.67773 36.3855 9.20117V9.33301ZM33.8455 9.14844C33.8455 8.26367 33.6873 7.58105 33.3709 7.10059C33.0603 6.62012 32.6062 6.37988 32.0086 6.37988C31.2117 6.37988 30.6638 6.68457 30.365 7.29395V11.1875C30.6755 11.8145 31.2293 12.1279 32.0261 12.1279C33.239 12.1279 33.8455 11.1348 33.8455 9.14844ZM41.7282 14H39.1794V4.49023H41.7282V14ZM39.03 2.0293C39.03 1.64844 39.1559 1.33496 39.4079 1.08887C39.6657 0.842773 40.0143 0.719727 40.4538 0.719727C40.8874 0.719727 41.2331 0.842773 41.4909 1.08887C41.7487 1.33496 41.8776 1.64844 41.8776 2.0293C41.8776 2.41602 41.7458 2.73242 41.4821 2.97852C41.2243 3.22461 40.8815 3.34766 40.4538 3.34766C40.0261 3.34766 39.6804 3.22461 39.4167 2.97852C39.1589 2.73242 39.03 2.41602 39.03 2.0293ZM50.2525 6.87207C49.9068 6.8252 49.6021 6.80176 49.3385 6.80176C48.3775 6.80176 47.7477 7.12695 47.4488 7.77734V14H44.9088V4.49023H47.3082L47.3785 5.62402C47.8883 4.75098 48.5943 4.31445 49.4967 4.31445C49.7779 4.31445 50.0416 4.35254 50.2877 4.42871L50.2525 6.87207ZM57.8101 14C57.6929 13.7715 57.6079 13.4873 57.5552 13.1475C56.94 13.833 56.1402 14.1758 55.1558 14.1758C54.2241 14.1758 53.4507 13.9062 52.8355 13.3672C52.2261 12.8281 51.9214 12.1484 51.9214 11.3281C51.9214 10.3203 52.2935 9.54688 53.0376 9.00781C53.7876 8.46875 54.8687 8.19629 56.2808 8.19043H57.4497V7.64551C57.4497 7.20605 57.3355 6.85449 57.107 6.59082C56.8843 6.32715 56.5298 6.19531 56.0435 6.19531C55.6157 6.19531 55.2788 6.29785 55.0327 6.50293C54.7925 6.70801 54.6724 6.98926 54.6724 7.34668H52.1323C52.1323 6.7959 52.3023 6.28613 52.6421 5.81738C52.982 5.34863 53.4624 4.98242 54.0835 4.71875C54.7046 4.44922 55.4019 4.31445 56.1753 4.31445C57.3472 4.31445 58.2759 4.61035 58.9614 5.20215C59.6529 5.78809 59.9986 6.61426 59.9986 7.68066V11.8027C60.0044 12.7051 60.1304 13.3877 60.3765 13.8506V14H57.8101ZM55.7095 12.2334C56.0845 12.2334 56.4302 12.1514 56.7466 11.9873C57.063 11.8174 57.2974 11.5918 57.4497 11.3105V9.67578H56.5005C55.229 9.67578 54.5523 10.1152 54.4702 10.9941L54.4614 11.1436C54.4614 11.46 54.5728 11.7207 54.7954 11.9258C55.0181 12.1309 55.3228 12.2334 55.7095 12.2334ZM66.0707 2.15234V4.49023H67.6967V6.35352H66.0707V11.0996C66.0707 11.4512 66.1381 11.7031 66.2729 11.8555C66.4077 12.0078 66.6655 12.084 67.0463 12.084C67.3276 12.084 67.5766 12.0635 67.7934 12.0225V13.9473C67.2954 14.0996 66.7827 14.1758 66.2553 14.1758C64.4741 14.1758 63.5659 13.2764 63.5307 11.4775V6.35352H62.142V4.49023H63.5307V2.15234H66.0707ZM72.8724 14H70.3236V4.49023H72.8724V14ZM70.1742 2.0293C70.1742 1.64844 70.3002 1.33496 70.5521 1.08887C70.8099 0.842773 71.1586 0.719727 71.598 0.719727C72.0316 0.719727 72.3773 0.842773 72.6351 1.08887C72.8929 1.33496 73.0218 1.64844 73.0218 2.0293C73.0218 2.41602 72.89 2.73242 72.6263 2.97852C72.3685 3.22461 72.0257 3.34766 71.598 3.34766C71.1703 3.34766 70.8246 3.22461 70.5609 2.97852C70.3031 2.73242 70.1742 2.41602 70.1742 2.0293ZM75.6575 9.15723C75.6575 8.21387 75.8391 7.37305 76.2024 6.63477C76.5657 5.89648 77.0872 5.3252 77.7669 4.9209C78.4524 4.5166 79.2464 4.31445 80.1487 4.31445C81.4319 4.31445 82.4778 4.70703 83.2864 5.49219C84.1009 6.27734 84.555 7.34375 84.6487 8.69141L84.6663 9.3418C84.6663 10.8008 84.2591 11.9727 83.4446 12.8574C82.6302 13.7363 81.5374 14.1758 80.1663 14.1758C78.7952 14.1758 77.6995 13.7363 76.8792 12.8574C76.0647 11.9785 75.6575 10.7832 75.6575 9.27148V9.15723ZM78.1975 9.3418C78.1975 10.2441 78.3675 10.9355 78.7073 11.416C79.0471 11.8906 79.5335 12.1279 80.1663 12.1279C80.7815 12.1279 81.262 11.8936 81.6077 11.4248C81.9534 10.9502 82.1263 10.1943 82.1263 9.15723C82.1263 8.27246 81.9534 7.58691 81.6077 7.10059C81.262 6.61426 80.7757 6.37109 80.1487 6.37109C79.5276 6.37109 79.0471 6.61426 78.7073 7.10059C78.3675 7.58105 78.1975 8.32812 78.1975 9.3418ZM89.6486 4.49023L89.7277 5.58887C90.4074 4.73926 91.3186 4.31445 92.4611 4.31445C93.4689 4.31445 94.2189 4.61035 94.7111 5.20215C95.2033 5.79395 95.4553 6.67871 95.467 7.85645V14H92.927V7.91797C92.927 7.37891 92.8098 6.98926 92.5754 6.74902C92.341 6.50293 91.9514 6.37988 91.4064 6.37988C90.6916 6.37988 90.1555 6.68457 89.798 7.29395V14H87.258V4.49023H89.6486ZM106.522 5.52734C107.195 4.71875 108.042 4.31445 109.062 4.31445C111.124 4.31445 112.17 5.5127 112.199 7.90918V14H109.659V7.97949C109.659 7.43457 109.542 7.0332 109.308 6.77539C109.073 6.51172 108.684 6.37988 108.139 6.37988C107.395 6.37988 106.856 6.66699 106.522 7.24121V14H103.981V0.5H106.522V5.52734ZM120.706 14C120.589 13.7715 120.504 13.4873 120.451 13.1475C119.836 13.833 119.036 14.1758 118.052 14.1758C117.12 14.1758 116.347 13.9062 115.731 13.3672C115.122 12.8281 114.817 12.1484 114.817 11.3281C114.817 10.3203 115.189 9.54688 115.934 9.00781C116.684 8.46875 117.765 8.19629 119.177 8.19043H120.346V7.64551C120.346 7.20605 120.231 6.85449 120.003 6.59082C119.78 6.32715 119.426 6.19531 118.939 6.19531C118.512 6.19531 118.175 6.29785 117.929 6.50293C117.688 6.70801 117.568 6.98926 117.568 7.34668H115.028C115.028 6.7959 115.198 6.28613 115.538 5.81738C115.878 5.34863 116.358 4.98242 116.979 4.71875C117.601 4.44922 118.298 4.31445 119.071 4.31445C120.243 4.31445 121.172 4.61035 121.857 5.20215C122.549 5.78809 122.894 6.61426 122.894 7.68066V11.8027C122.9 12.7051 123.026 13.3877 123.272 13.8506V14H120.706ZM118.605 12.2334C118.98 12.2334 119.326 12.1514 119.643 11.9873C119.959 11.8174 120.193 11.5918 120.346 11.3105V9.67578H119.396C118.125 9.67578 117.448 10.1152 117.366 10.9941L117.357 11.1436C117.357 11.46 117.469 11.7207 117.691 11.9258C117.914 12.1309 118.219 12.2334 118.605 12.2334ZM131.076 11.3721C131.076 11.0615 130.921 10.8184 130.61 10.6426C130.306 10.4609 129.813 10.2998 129.134 10.1592C126.872 9.68457 125.741 8.72363 125.741 7.27637C125.741 6.43262 126.09 5.72949 126.787 5.16699C127.49 4.59863 128.407 4.31445 129.538 4.31445C130.745 4.31445 131.709 4.59863 132.43 5.16699C133.156 5.73535 133.519 6.47363 133.519 7.38184H130.979C130.979 7.01855 130.862 6.71973 130.628 6.48535C130.393 6.24512 130.027 6.125 129.529 6.125C129.101 6.125 128.77 6.22168 128.536 6.41504C128.302 6.6084 128.184 6.85449 128.184 7.15332C128.184 7.43457 128.316 7.66309 128.58 7.83887C128.849 8.00879 129.301 8.1582 129.933 8.28711C130.566 8.41016 131.099 8.55078 131.533 8.70898C132.875 9.20117 133.546 10.0537 133.546 11.2666C133.546 12.1338 133.174 12.8369 132.43 13.376C131.685 13.9092 130.724 14.1758 129.547 14.1758C128.75 14.1758 128.041 14.0352 127.42 13.7539C126.805 13.4668 126.321 13.0771 125.97 12.585C125.618 12.0869 125.442 11.5508 125.442 10.9766H127.85C127.874 11.4277 128.041 11.7734 128.351 12.0137C128.662 12.2539 129.078 12.374 129.599 12.374C130.086 12.374 130.452 12.2832 130.698 12.1016C130.95 11.9141 131.076 11.6709 131.076 11.3721ZM144.17 4.49023L144.249 5.58887C144.928 4.73926 145.84 4.31445 146.982 4.31445C147.99 4.31445 148.74 4.61035 149.232 5.20215C149.724 5.79395 149.976 6.67871 149.988 7.85645V14H147.448V7.91797C147.448 7.37891 147.331 6.98926 147.096 6.74902C146.862 6.50293 146.472 6.37988 145.927 6.37988C145.213 6.37988 144.676 6.68457 144.319 7.29395V14H141.779V4.49023H144.17ZM152.606 9.15723C152.606 8.21387 152.788 7.37305 153.151 6.63477C153.514 5.89648 154.036 5.3252 154.715 4.9209C155.401 4.5166 156.195 4.31445 157.097 4.31445C158.381 4.31445 159.426 4.70703 160.235 5.49219C161.049 6.27734 161.504 7.34375 161.597 8.69141L161.615 9.3418C161.615 10.8008 161.208 11.9727 160.393 12.8574C159.579 13.7363 158.486 14.1758 157.115 14.1758C155.744 14.1758 154.648 13.7363 153.828 12.8574C153.013 11.9785 152.606 10.7832 152.606 9.27148V9.15723ZM155.146 9.3418C155.146 10.2441 155.316 10.9355 155.656 11.416C155.996 11.8906 156.482 12.1279 157.115 12.1279C157.73 12.1279 158.211 11.8936 158.556 11.4248C158.902 10.9502 159.075 10.1943 159.075 9.15723C159.075 8.27246 158.902 7.58691 158.556 7.10059C158.211 6.61426 157.724 6.37109 157.097 6.37109C156.476 6.37109 155.996 6.61426 155.656 7.10059C155.316 7.58105 155.146 8.32812 155.146 9.3418ZM169.989 14V1.20312H174.471C176.024 1.20312 177.202 1.50195 178.004 2.09961C178.807 2.69141 179.208 3.56152 179.208 4.70996C179.208 5.33691 179.047 5.89062 178.725 6.37109C178.403 6.8457 177.955 7.19434 177.38 7.41699C178.037 7.58105 178.552 7.91211 178.927 8.41016C179.308 8.9082 179.499 9.51758 179.499 10.2383C179.499 11.4688 179.106 12.4004 178.321 13.0332C177.536 13.666 176.416 13.9883 174.963 14H169.989ZM172.625 8.42773V11.8818H174.884C175.505 11.8818 175.989 11.7354 176.334 11.4424C176.686 11.1436 176.862 10.7334 176.862 10.2119C176.862 9.04004 176.255 8.44531 175.042 8.42773H172.625ZM172.625 6.56445H174.577C175.907 6.54102 176.572 6.01074 176.572 4.97363C176.572 4.39355 176.402 3.97754 176.062 3.72559C175.728 3.46777 175.198 3.33887 174.471 3.33887H172.625V6.56445ZM182.002 9.15723C182.002 8.21387 182.184 7.37305 182.547 6.63477C182.911 5.89648 183.432 5.3252 184.112 4.9209C184.797 4.5166 185.591 4.31445 186.494 4.31445C187.777 4.31445 188.823 4.70703 189.631 5.49219C190.446 6.27734 190.9 7.34375 190.994 8.69141L191.011 9.3418C191.011 10.8008 190.604 11.9727 189.789 12.8574C188.975 13.7363 187.882 14.1758 186.511 14.1758C185.14 14.1758 184.044 13.7363 183.224 12.8574C182.41 11.9785 182.002 10.7832 182.002 9.27148V9.15723ZM184.542 9.3418C184.542 10.2441 184.712 10.9355 185.052 11.416C185.392 11.8906 185.878 12.1279 186.511 12.1279C187.126 12.1279 187.607 11.8936 187.953 11.4248C188.298 10.9502 188.471 10.1943 188.471 9.15723C188.471 8.27246 188.298 7.58691 187.953 7.10059C187.607 6.61426 187.121 6.37109 186.494 6.37109C185.872 6.37109 185.392 6.61426 185.052 7.10059C184.712 7.58105 184.542 8.32812 184.542 9.3418ZM198.999 6.87207C198.654 6.8252 198.349 6.80176 198.085 6.80176C197.124 6.80176 196.494 7.12695 196.196 7.77734V14H193.656V4.49023H196.055L196.125 5.62402C196.635 4.75098 197.341 4.31445 198.243 4.31445C198.525 4.31445 198.788 4.35254 199.035 4.42871L198.999 6.87207ZM200.739 9.1748C200.739 7.69238 201.07 6.51172 201.732 5.63281C202.4 4.75391 203.311 4.31445 204.465 4.31445C205.391 4.31445 206.156 4.66016 206.759 5.35156V0.5H209.308V14H207.014L206.891 12.9893C206.258 13.7803 205.444 14.1758 204.447 14.1758C203.328 14.1758 202.429 13.7363 201.749 12.8574C201.075 11.9727 200.739 10.7451 200.739 9.1748ZM203.279 9.35938C203.279 10.25 203.434 10.9326 203.744 11.4072C204.055 11.8818 204.506 12.1191 205.098 12.1191C205.883 12.1191 206.437 11.7881 206.759 11.126V7.37305C206.443 6.71094 205.895 6.37988 205.115 6.37988C203.891 6.37988 203.279 7.37305 203.279 9.35938ZM216.734 14.1758C215.339 14.1758 214.202 13.748 213.323 12.8926C212.45 12.0371 212.014 10.8975 212.014 9.47363V9.22754C212.014 8.27246 212.198 7.41992 212.568 6.66992C212.937 5.91406 213.458 5.33398 214.132 4.92969C214.812 4.51953 215.585 4.31445 216.452 4.31445C217.753 4.31445 218.776 4.72461 219.52 5.54492C220.27 6.36523 220.645 7.52832 220.645 9.03418V10.0713H214.589C214.671 10.6924 214.917 11.1904 215.327 11.5654C215.743 11.9404 216.268 12.1279 216.901 12.1279C217.879 12.1279 218.644 11.7734 219.194 11.0645L220.443 12.4619C220.062 13.001 219.546 13.4229 218.896 13.7275C218.245 14.0264 217.525 14.1758 216.734 14.1758ZM216.444 6.37109C215.94 6.37109 215.529 6.54102 215.213 6.88086C214.902 7.2207 214.703 7.70703 214.615 8.33984H218.149V8.1377C218.137 7.5752 217.985 7.1416 217.692 6.83691C217.399 6.52637 216.983 6.37109 216.444 6.37109ZM228.519 6.87207C228.173 6.8252 227.868 6.80176 227.605 6.80176C226.644 6.80176 226.014 7.12695 225.715 7.77734V14H223.175V4.49023H225.574L225.645 5.62402C226.154 4.75098 226.86 4.31445 227.763 4.31445C228.044 4.31445 228.308 4.35254 228.554 4.42871L228.519 6.87207ZM235.979 11.3721C235.979 11.0615 235.824 10.8184 235.514 10.6426C235.209 10.4609 234.717 10.2998 234.037 10.1592C231.775 9.68457 230.645 8.72363 230.645 7.27637C230.645 6.43262 230.993 5.72949 231.69 5.16699C232.394 4.59863 233.311 4.31445 234.441 4.31445C235.648 4.31445 236.612 4.59863 237.333 5.16699C238.06 5.73535 238.423 6.47363 238.423 7.38184H235.883C235.883 7.01855 235.766 6.71973 235.531 6.48535C235.297 6.24512 234.931 6.125 234.433 6.125C234.005 6.125 233.674 6.22168 233.439 6.41504C233.205 6.6084 233.088 6.85449 233.088 7.15332C233.088 7.43457 233.22 7.66309 233.483 7.83887C233.753 8.00879 234.204 8.1582 234.837 8.28711C235.47 8.41016 236.003 8.55078 236.437 8.70898C237.778 9.20117 238.449 10.0537 238.449 11.2666C238.449 12.1338 238.077 12.8369 237.333 13.376C236.589 13.9092 235.628 14.1758 234.45 14.1758C233.653 14.1758 232.944 14.0352 232.323 13.7539C231.708 13.4668 231.225 13.0771 230.873 12.585C230.521 12.0869 230.346 11.5508 230.346 10.9766H232.754C232.777 11.4277 232.944 11.7734 233.255 12.0137C233.565 12.2539 233.981 12.374 234.503 12.374C234.989 12.374 235.355 12.2832 235.602 12.1016C235.854 11.9141 235.979 11.6709 235.979 11.3721Z" fill="#212121"/>
</svg>
